# xmcd
#
# Track frame offsets: 
#        150
#        10877
#        24967
#        39902
#        52060
#        65335
#        78655
#        91312
#        104260
#        119260
#        134057
#        149455
#        160575
#        171905
#        186685
#        200630
#        213960
#
# Disc length: 3025 seconds
#
# Revision: 2
# Processed by: cddbd v1.5.2PL0 Copyright (c) Steve Scherf et al.
# Submitted via: ExactAudioCopy v1.0b4
#
DISCID=f40bcf11
DTITLE=Boozoo Chavis - Boozoo's  Breakdown
DYEAR=1991
DGENRE=Blues
TTITLE0=Uncle Bud
TTITLE1=Jolie Catan
TTITLE2=What's the matter now
TTITLE3=Do it all night long
TTITLE4=Cryin' in the street
TTITLE5=I want to play with your poodle
TTITLE6=Zydeco Coteau
TTITLE7=Jeaulous Man two-step
TTITLE8=Make up your mind
TTITLE9=Zydeco Mardi Gras
TTITLE10=Suzy Q
TTITLE11=Make it to me
TTITLE12=Zydeco homebrew
TTITLE13=Your Mama and Papa
TTITLE14=Boozoo's  trail ride breakdown
TTITLE15=Telephone Blues
TTITLE16=Boozoo's  theme song
EXTD=1991\n\n\nsubmitted by Stamppot
EXTT0=
EXTT1=
EXTT2=
EXTT3=
EXTT4=
EXTT5=
EXTT6=
EXTT7=
EXTT8=
EXTT9=
EXTT10=
EXTT11=
EXTT12=
EXTT13=
EXTT14=
EXTT15=
EXTT16=
PLAYORDER=
